{
  "accessors": [
    {
      "bufferView": 2,
      "componentType": 5126,
      "count": 4704,
      "max": [
        27.3405704498291,
        1.895795464515686,
        1.1540645360946655
      ],
      "min": [
        -27.422117233276367,
        -1.9972858428955078,
        -1.1577026844024658
      ],
      "type": "VEC3"
    },
    {
      "bufferView": 2,
      "byteOffset": 56448,
      "componentType": 5126,
      "count": 4704,
      "max": [
        1.0,
        1.0,
        1.0
      ],
      "min": [
        -1.0,
        -1.0,
        -1.0
      ],
      "type": "VEC3"
    },
    {
      "bufferView": 1,
      "componentType": 5126,
      "count": 4704,
      "max": [
        1.0,
        1.0
      ],
      "min": [
        0.0,
        0.0
      ],
      "type": "VEC2"
    },
    {
      "bufferView": 0,
      "componentType": 5125,
      "count": 9228,
      "type": "SCALAR"
    }
  ],
  "asset": {
    "extras": {
      "author": "Joebuz33 (https://sketchfab.com/Joebuz33)",
      "license": "CC-BY-4.0 (http://creativecommons.org/licenses/by/4.0/)",
      "source": "https://sketchfab.com/3d-models/lego-block-2x4-1985-d9db0ec3cffb4c3a99a4b71b2644b586",
      "title": "LEGO block 2x4 (1985 +)"
    },
    "generator": "Sketchfab-12.67.0",
    "version": "2.0"
  },
  "bufferViews": [
    {
      "buffer": 0,
      "byteLength": 36912,
      "name": "floatBufferViews",
      "target": 34963
    },
    {
      "buffer": 0,
      "byteLength": 37632,
      "byteOffset": 36912,
      "byteStride": 8,
      "name": "floatBufferViews",
      "target": 34962
    },
    {
      "buffer": 0,
      "byteLength": 112896,
      "byteOffset": 74544,
      "byteStride": 12,
      "name": "floatBufferViews",
      "target": 34962
    }
  ],
  "buffers": [
    {
      "byteLength": 187440,
      "uri": "lego_block.bin"
    }
  ],
  "materials": [
    {
      "doubleSided": true,
      "name": "Material",
      "pbrMetallicRoughness": {
        "baseColorFactor": [
          0.768152,
          0.0,
          0.00334655,
          1.0
        ],
        "metallicFactor": 0.0,
        "roughnessFactor": 0.4
      }
    }
  ],
  "meshes": [
    {
      "name": "Object_0",
      "primitives": [
        {
          "attributes": {
            "NORMAL": 1,
            "POSITION": 0,
            "TEXCOORD_0": 2
          },
          "indices": 3,
          "material": 0,
          "mode": 4
        }
      ]
    }
  ],
  "nodes": [
    {
      "children": [
        1
      ],
      "matrix": [
        1.0,
        0.0,
        0.0,
        0.0,
        0.0,
        2.220446049250313e-16,
        -1.0,
        0.0,
        0.0,
        1.0,
        2.220446049250313e-16,
        0.0,
        0.0,
        0.0,
        0.0,
        1.0
      ],
      "name": "Sketchfab_model"
    },
    {
      "children": [
        2
      ],
      "name": "root"
    },
    {
      "children": [
        3
      ],
      "matrix": [
        1.0,
        0.0,
        0.0,
        0.0,
        0.0,
        2.220446049250313e-16,
        1.0,
        0.0,
        0.0,
        -1.0,
        2.220446049250313e-16,
        0.0,
        0.0,
        0.0,
        0.0,
        1.0
      ],
      "name": "GLTF_SceneRootNode"
    },
    {
      "children": [
        4
      ],
      "matrix": [
        0.16745057702064514,
        0.0,
        0.0,
        0.0,
        0.0,
        0.8534263968467712,
        0.0,
        0.0,
        0.0,
        0.0,
        1.9829150438308716,
        0.0,
        0.0,
        0.0,
        0.0,
        1.0
      ],
      "name": "Cube_2"
    },
    {
      "mesh": 0,
      "name": "Object_4"
    }
  ],
  "scene": 0,
  "scenes": [
    {
      "name": "Sketchfab_Scene",
      "nodes": [
        0
      ]
    }
  ]
}
