{
  "accessors": [
    {
      "bufferView": 2,
      "componentType": 5126,
      "count": 901,
      "max": [
        6.925252437591553,
        6.909838676452637,
        15.0
      ],
      "min": [
        -13.485029220581055,
        -6.895709991455078,
        -1.0805567107752267e-08
      ],
      "type": "VEC3"
    },
    {
      "bufferView": 2,
      "byteOffset": 10812,
      "componentType": 5126,
      "count": 901,
      "max": [
        0.9999843835830688,
        0.999984622001648,
        0.999984622001648
      ],
      "min": [
        -0.9990631937980652,
        -0.9999843835830688,
        -0.999984622001648
      ],
      "type": "VEC3"
    },
    {
      "bufferView": 1,
      "componentType": 5126,
      "count": 901,
      "max": [
        0.9931640625,
        0.9913864135742188
      ],
      "min": [
        0.0007681846618652344,
        0.001953125
      ],
      "type": "VEC2"
    },
    {
      "bufferView": 1,
      "byteOffset": 7208,
      "componentType": 5126,
      "count": 901,
      "max": [
        0.998046875,
        0.9809722900390625
      ],
      "min": [
        0.0257110595703125,
        0.001953125
      ],
      "type": "VEC2"
    },
    {
      "bufferView": 0,
      "componentType": 5125,
      "count": 4284,
      "type": "SCALAR"
    }
  ],
  "asset": {
    "extras": {
      "author": "The Lister (https://sketchfab.com/MortemNightshade)",
      "license": "CC-BY-4.0 (http://creativecommons.org/licenses/by/4.0/)",
      "source": "https://sketchfab.com/3d-models/coffee-mug-6c95897de04143aeb5c75b7630707d27",
      "title": "Coffee Mug"
    },
    "generator": "Sketchfab-12.67.0",
    "version": "2.0"
  },
  "bufferViews": [
    {
      "buffer": 0,
      "byteLength": 17136,
      "name": "floatBufferViews",
      "target": 34963
    },
    {
      "buffer": 0,
      "byteLength": 14416,
      "byteOffset": 17136,
      "byteStride": 8,
      "name": "floatBufferViews",
      "target": 34962
    },
    {
      "buffer": 0,
      "byteLength": 21624,
      "byteOffset": 31552,
      "byteStride": 12,
      "name": "floatBufferViews",
      "target": 34962
    }
  ],
  "buffers": [
    {
      "byteLength": 53176,
      "uri": "coffee_mug.bin"
    }
  ],
  "images": [
    {
      "uri": "textures/M_Mug_baseColor.png"
    }
  ],
  "materials": [
    {
      "doubleSided": true,
      "name": "M_Mug",
      "pbrMetallicRoughness": {
        "baseColorTexture": {
          "index": 0
        },
        "metallicFactor": 0.0
      }
    }
  ],
  "meshes": [
    {
      "name": "Mug_M_Mug_0",
      "primitives": [
        {
          "attributes": {
            "NORMAL": 1,
            "POSITION": 0,
            "TEXCOORD_0": 2,
            "TEXCOORD_1": 3
          },
          "indices": 4,
          "material": 0,
          "mode": 4
        }
      ]
    }
  ],
  "nodes": [
    {
      "children": [
        1
      ],
      "matrix": [
        -0.03349681198596954,
        -9.488874208858782e-18,
        -2.7049969523049153e-33,
        0.0,
        -9.27883785134421e-34,
        1.2824484498832585e-17,
        -0.03349681198596954,
        0.0,
        9.488874208858782e-18,
        -0.03349681198596954,
        -1.2824484498832585e-17,
        0.0,
        -6.559710502624512,
        -15.000006675720215,
        -4.537170733724997e-15,
        1.0
      ],
      "name": "Sketchfab_model"
    },
    {
      "children": [
        2
      ],
      "matrix": [
        1.0,
        0.0,
        0.0,
        0.0,
        0.0,
        -1.0,
        0.0,
        0.0,
        0.0,
        0.0,
        -1.0,
        0.0,
        0.0,
        0.0,
        0.0,
        1.0
      ],
      "name": "CoffeeMug.FBX"
    },
    {
      "children": [
        3
      ],
      "name": "RootNode"
    },
    {
      "children": [
        4
      ],
      "name": "Mug"
    },
    {
      "mesh": 0,
      "name": "Mug_M_Mug_0"
    }
  ],
  "samplers": [
    {
      "magFilter": 9729,
      "minFilter": 9987,
      "wrapS": 10497,
      "wrapT": 10497
    }
  ],
  "scene": 0,
  "scenes": [
    {
      "name": "Sketchfab_Scene",
      "nodes": [
        0
      ]
    }
  ],
  "textures": [
    {
      "sampler": 0,
      "source": 0
    }
  ]
}
