{
  "accessors": [
    {
      "bufferView": 2,
      "componentType": 5126,
      "count": 65532,
      "max": [
        0.0014177458360791206,
        0.0016231752233579755,
        0.001300241332501173
      ],
      "min": [
        -0.002141097327694297,
        -0.0016674029175192118,
        -0.0013312194496393204
      ],
      "type": "VEC3"
    },
    {
      "bufferView": 2,
      "byteOffset": 786384,
      "componentType": 5126,
      "count": 65532,
      "max": [
        0.9999781250953674,
        0.9999557137489319,
        0.9999736547470093
      ],
      "min": [
        -0.9999706745147705,
        -0.999987781047821,
        -0.9999677538871765
      ],
      "type": "VEC3"
    },
    {
      "bufferView": 1,
      "componentType": 5126,
      "count": 65532,
      "max": [
        0.9769540429115295,
        0.9996731281280518
      ],
      "min": [
        0.0020099207758903503,
        0.000718437135219574
      ],
      "type": "VEC2"
    },
    {
      "bufferView": 0,
      "componentType": 5125,
      "count": 358524,
      "type": "SCALAR"
    },
    {
      "bufferView": 2,
      "byteOffset": 1572768,
      "componentType": 5126,
      "count": 65532,
      "max": [
        0.00158476282376796,
        0.002178168622776866,
        0.0013366237981244922
      ],
      "min": [
        -0.002140419092029333,
        -0.0016730644274502993,
        -0.001306980149820447
      ],
      "type": "VEC3"
    },
    {
      "bufferView": 2,
      "byteOffset": 2359152,
      "componentType": 5126,
      "count": 65532,
      "max": [
        0.9999797940254211,
        0.9999935626983643,
        0.9999675750732422
      ],
      "min": [
        -0.9999275207519531,
        -0.9999983906745911,
        -0.9999940395355225
      ],
      "type": "VEC3"
    },
    {
      "bufferView": 1,
      "byteOffset": 524256,
      "componentType": 5126,
      "count": 65532,
      "max": [
        0.9748698472976685,
        0.9955329298973083
      ],
      "min": [
        7.151812314987183e-05,
        0.00029161758720874786
      ],
      "type": "VEC2"
    },
    {
      "bufferView": 0,
      "byteOffset": 1434096,
      "componentType": 5125,
      "count": 341049,
      "type": "SCALAR"
    },
    {
      "bufferView": 2,
      "byteOffset": 3145536,
      "componentType": 5126,
      "count": 2568,
      "max": [
        0.0001151718242908828,
        0.0006801392300985754,
        0.0012690419098362327
      ],
      "min": [
        -0.0016939842607825994,
        -0.0011936548398807645,
        0.000470639206469059
      ],
      "type": "VEC3"
    },
    {
      "bufferView": 2,
      "byteOffset": 3176352,
      "componentType": 5126,
      "count": 2568,
      "max": [
        0.9997504949569702,
        0.997483491897583,
        0.9999736547470093
      ],
      "min": [
        -0.9982673525810242,
        -0.9865974187850952,
        -0.979887843132019
      ],
      "type": "VEC3"
    },
    {
      "bufferView": 1,
      "byteOffset": 1048512,
      "componentType": 5126,
      "count": 2568,
      "max": [
        0.9275698661804199,
        0.9988445043563843
      ],
      "min": [
        0.11964038014411926,
        0.03247939795255661
      ],
      "type": "VEC2"
    },
    {
      "bufferView": 0,
      "byteOffset": 2798292,
      "componentType": 5125,
      "count": 6525,
      "type": "SCALAR"
    }
  ],
  "asset": {
    "extras": {
      "author": "chaeseoyeong (https://sketchfab.com/chaeseoyeong)",
      "license": "CC-BY-4.0 (http://creativecommons.org/licenses/by/4.0/)",
      "source": "https://sketchfab.com/3d-models/croissant-352b485c757f48c19a45a30ac0077489",
      "title": "Croissant"
    },
    "generator": "Sketchfab-13.96.0",
    "version": "2.0"
  },
  "bufferViews": [
    {
      "buffer": 0,
      "byteLength": 2824392,
      "name": "floatBufferViews",
      "target": 34963
    },
    {
      "buffer": 0,
      "byteLength": 1069056,
      "byteOffset": 2824392,
      "byteStride": 8,
      "name": "floatBufferViews",
      "target": 34962
    },
    {
      "buffer": 0,
      "byteLength": 3207168,
      "byteOffset": 3893448,
      "byteStride": 12,
      "name": "floatBufferViews",
      "target": 34962
    }
  ],
  "buffers": [
    {
      "byteLength": 7100616,
      "uri": "croissant.bin"
    }
  ],
  "images": [
    {
      "uri": "textures/material0_baseColor.jpeg"
    }
  ],
  "materials": [
    {
      "doubleSided": true,
      "name": "material0",
      "pbrMetallicRoughness": {
        "baseColorTexture": {
          "index": 0
        },
        "metallicFactor": 0.0,
        "roughnessFactor": 0.9577051494623774
      }
    }
  ],
  "meshes": [
    {
      "name": "Model_material0_0",
      "primitives": [
        {
          "attributes": {
            "NORMAL": 1,
            "POSITION": 0,
            "TEXCOORD_0": 2
          },
          "indices": 3,
          "material": 0,
          "mode": 4
        }
      ]
    },
    {
      "name": "Model_material0_0",
      "primitives": [
        {
          "attributes": {
            "NORMAL": 5,
            "POSITION": 4,
            "TEXCOORD_0": 6
          },
          "indices": 7,
          "material": 0,
          "mode": 4
        }
      ]
    },
    {
      "name": "Model_material0_0",
      "primitives": [
        {
          "attributes": {
            "NORMAL": 9,
            "POSITION": 8,
            "TEXCOORD_0": 10
          },
          "indices": 11,
          "material": 0,
          "mode": 4
        }
      ]
    }
  ],
  "nodes": [
    {
      "children": [
        1
      ],
      "matrix": [
        -0.7040722370147705,
        0.4828701317310332,
        0.5206906199455262,
        0.0,
        0.6332486271858215,
        0.7587479948997498,
        0.1526357829570772,
        0.0,
        -0.3213697075843811,
        0.4371932446956636,
        -0.8399902582168578,
        0.0,
        0.0,
        0.0,
        0.0,
        1.0
      ],
      "name": "Sketchfab_model"
    },
    {
      "children": [
        2
      ],
      "matrix": [
        1.0,
        0.0,
        0.0,
        0.0,
        0.0,
        -1.0,
        0.0,
        0.0,
        0.0,
        0.0,
        -1.0,
        0.0,
        0.0,
        0.0,
        0.0,
        1.0
      ],
      "name": "model.fbx"
    },
    {
      "children": [
        3
      ],
      "name": "RootNode"
    },
    {
      "children": [
        4,
        5,
        6
      ],
      "name": "Model"
    },
    {
      "mesh": 0,
      "name": "Model_material0_0"
    },
    {
      "mesh": 1,
      "name": "Model_material0_0"
    },
    {
      "mesh": 2,
      "name": "Model_material0_0"
    }
  ],
  "samplers": [
    {
      "magFilter": 9729,
      "minFilter": 9987,
      "wrapS": 10497,
      "wrapT": 10497
    }
  ],
  "scene": 0,
  "scenes": [
    {
      "name": "Sketchfab_Scene",
      "nodes": [
        0
      ]
    }
  ],
  "textures": [
    {
      "sampler": 0,
      "source": 0
    }
  ]
}
